<svg width="20" height="20" viewBox="0 0 20 20" fill="none" xmlns="http://www.w3.org/2000/svg">
<path d="M3.28197 6.71924C2.64869 6.71893 2.13541 7.23346 2.13525 7.86627L2.13604 12.6688C2.13597 12.8194 2.1656 12.9687 2.22323 13.1079C2.28086 13.2471 2.36536 13.3736 2.47189 13.4802C2.57843 13.5867 2.70492 13.6712 2.84413 13.7289C2.98334 13.7865 3.13255 13.8162 3.28322 13.8161C3.43389 13.8163 3.58311 13.7867 3.72233 13.7291C3.86155 13.6715 3.98804 13.587 4.09455 13.4804C4.20106 13.3739 4.2855 13.2473 4.34302 13.1081C4.40055 12.9688 4.43003 12.8196 4.42979 12.6689V7.86565C4.42945 7.56146 4.30837 7.26985 4.09315 7.05488C3.87792 6.83992 3.58616 6.7192 3.28197 6.71924ZM12.5309 2.40643L13.3313 0.944709C13.3517 0.907629 13.3566 0.863975 13.3449 0.82332C13.3331 0.782665 13.3057 0.748327 13.2687 0.727834C13.2316 0.707686 13.1881 0.703067 13.1476 0.714988C13.1071 0.72691 13.073 0.754399 13.0528 0.791428L12.2442 2.26846C11.5638 1.96565 10.8024 1.79596 9.99682 1.79674C9.19338 1.79596 8.43229 1.96518 7.75479 2.26627L6.94525 0.79299C6.93537 0.7746 6.92194 0.758354 6.90573 0.745192C6.88953 0.732031 6.87087 0.722215 6.85084 0.716315C6.83082 0.710415 6.80982 0.708547 6.78907 0.710819C6.76831 0.713091 6.74822 0.719459 6.72994 0.729553C6.71149 0.739415 6.69519 0.752857 6.682 0.769093C6.66881 0.785329 6.65898 0.804033 6.65311 0.824111C6.64723 0.844189 6.64541 0.865238 6.64777 0.886026C6.65012 0.906813 6.6566 0.926923 6.66682 0.945178L7.4676 2.40596C5.89416 3.21737 4.83104 4.76268 4.83197 6.5369L15.1629 6.53565C15.1632 4.76205 14.102 3.21987 12.5309 2.40643ZM7.64713 4.66533C7.53224 4.66527 7.42207 4.61957 7.34088 4.53829C7.25968 4.457 7.2141 4.34679 7.21416 4.2319C7.21422 4.117 7.25992 4.00684 7.34121 3.92564C7.42249 3.84445 7.53271 3.79887 7.6476 3.79893C7.7625 3.79913 7.87265 3.84486 7.95391 3.9261C8.03518 4.00733 8.08094 4.11746 8.08119 4.23237C8.08099 4.34732 8.03515 4.45749 7.95376 4.53868C7.87237 4.61986 7.76209 4.66542 7.64713 4.66533ZM12.3512 4.66455C12.2943 4.66459 12.238 4.65342 12.1854 4.63168C12.1329 4.60994 12.0851 4.57805 12.0449 4.53784C12.0047 4.49763 11.9728 4.44988 11.951 4.39733C11.9292 4.34479 11.918 4.28846 11.9181 4.23158C11.9187 4.11679 11.9645 4.00686 12.0456 3.92561C12.1267 3.84436 12.2366 3.79834 12.3513 3.79752C12.466 3.79847 12.5757 3.84458 12.6567 3.92586C12.7376 4.00714 12.7832 4.11704 12.7837 4.23174C12.7838 4.28857 12.7726 4.34485 12.7509 4.39737C12.7292 4.44989 12.6973 4.49761 12.6572 4.53781C12.617 4.57801 12.5693 4.6099 12.5168 4.63164C12.4643 4.65339 12.408 4.66457 12.3512 4.66455ZM4.87416 6.93596L4.87588 14.3789C4.87565 14.5397 4.90715 14.6989 4.96857 14.8475C5.02999 14.996 5.12013 15.131 5.23381 15.2447C5.34749 15.3584 5.48249 15.4485 5.63106 15.5099C5.77964 15.5713 5.93887 15.6028 6.09963 15.6025L6.93291 15.6028L6.93385 18.1441C6.93369 18.7769 7.44807 19.2913 8.07994 19.2913C8.71369 19.2913 9.22713 18.7764 9.22729 18.1433L9.22666 15.6027L10.7749 15.6022L10.7756 18.1433C10.7756 18.7756 11.2901 19.2911 11.9221 19.2899C12.5559 19.2903 13.0696 18.7755 13.0695 18.1424L13.0687 15.6019L13.9049 15.6013C14.0657 15.6013 14.2249 15.5696 14.3734 15.5081C14.522 15.4466 14.6569 15.3565 14.7706 15.2428C14.8843 15.1292 14.9745 14.9942 15.0361 14.8457C15.0976 14.6972 15.1293 14.538 15.1293 14.3772L15.1279 6.93424L4.87416 6.93596ZM17.8638 7.86455C17.8638 7.71394 17.8341 7.56481 17.7765 7.42568C17.7188 7.28654 17.6343 7.16012 17.5278 7.05364C17.4213 6.94715 17.2949 6.86269 17.1557 6.80508C17.0166 6.74746 16.8674 6.71781 16.7168 6.71783C16.0835 6.71721 15.5704 7.23143 15.5704 7.86502L15.5713 12.6678C15.5712 12.8185 15.6008 12.9676 15.6584 13.1068C15.716 13.246 15.8005 13.3724 15.907 13.4789C16.0135 13.5854 16.1399 13.6699 16.2791 13.7275C16.4183 13.7851 16.5674 13.8147 16.7181 13.8146C16.8687 13.8146 17.0179 13.7849 17.157 13.7272C17.2962 13.6696 17.4226 13.5851 17.5291 13.4785C17.6356 13.3719 17.7201 13.2455 17.7776 13.1062C17.8352 12.967 17.8648 12.8179 17.8646 12.6672L17.8638 7.86455Z" fill="#000400"/>
</svg>
