<svg width="32" height="32" viewBox="0 0 32 32" fill="none" xmlns="http://www.w3.org/2000/svg">
<path d="M5.33325 25.9998V5.99984C5.33325 5.11578 5.68444 4.26794 6.30956 3.64281C6.93468 3.01769 7.78253 2.6665 8.66659 2.6665H25.3333C25.6869 2.6665 26.026 2.80698 26.2761 3.05703C26.5261 3.30708 26.6666 3.64622 26.6666 3.99984V27.9998C26.6666 28.3535 26.5261 28.6926 26.2761 28.9426C26.026 29.1927 25.6869 29.3332 25.3333 29.3332H8.66659C7.78253 29.3332 6.93468 28.982 6.30956 28.3569C5.68444 27.7317 5.33325 26.8839 5.33325 25.9998ZM5.33325 25.9998C5.33325 25.1158 5.68444 24.2679 6.30956 23.6428C6.93468 23.0177 7.78253 22.6665 8.66659 22.6665H26.6666M11.4933 13.0665C11.2127 12.774 10.9944 12.4278 10.8514 12.0486C10.7084 11.6695 10.6436 11.2653 10.6611 10.8604C10.6786 10.4556 10.778 10.0584 10.9531 9.69303C11.1283 9.32761 11.3757 9.00148 11.6804 8.7343C11.9851 8.46712 12.3407 8.26443 12.7259 8.13848C13.111 8.01252 13.5177 7.9659 13.9214 8.00143C14.3251 8.03696 14.7173 8.15391 15.0746 8.34521C15.4318 8.53651 15.7466 8.79821 15.9999 9.1145C16.2545 8.80151 16.5695 8.54307 16.9262 8.35465C17.283 8.16622 17.674 8.05168 18.076 8.01788C18.4781 7.98407 18.8828 8.0317 19.2659 8.15791C19.6491 8.28412 20.0029 8.48632 20.3061 8.75241C20.6094 9.0185 20.8558 9.34302 21.0307 9.70656C21.2057 10.0701 21.3055 10.4652 21.3242 10.8682C21.3429 11.2712 21.2801 11.6738 21.1397 12.052C20.9992 12.4302 20.7839 12.7761 20.5066 13.0692L17.0053 16.8772C16.8803 17.021 16.726 17.1363 16.5527 17.2154C16.3794 17.2944 16.1911 17.3353 16.0006 17.3353C15.8101 17.3353 15.6218 17.2944 15.4485 17.2154C15.2752 17.1363 15.1208 17.021 14.9959 16.8772L11.4933 13.0665Z" stroke="#001F12" stroke-width="2" stroke-linecap="round" stroke-linejoin="round"/>
</svg>
