<svg width="32" height="32" viewBox="0 0 32 32" fill="none" xmlns="http://www.w3.org/2000/svg">
<path d="M16 17.3334V28.0001M16 17.3334L10.6667 22.6668M16 17.3334L21.3334 22.6668M5.33338 19.8654C4.34277 18.8533 3.59547 17.6291 3.14809 16.2854C2.70071 14.9417 2.56499 13.5138 2.75119 12.1098C2.9374 10.7059 3.44065 9.36278 4.22284 8.18215C5.00502 7.00153 6.04562 6.0144 7.26582 5.29551C8.48602 4.57662 9.85381 4.14485 11.2656 4.03288C12.6774 3.92091 14.0961 4.13169 15.4144 4.64925C16.7327 5.16682 17.9159 5.97759 18.8744 7.02016C19.8329 8.06273 20.5415 9.30975 20.9467 10.6668H23.3334C24.6207 10.6666 25.874 11.0805 26.908 11.8474C27.9421 12.6142 28.7021 13.6933 29.0757 14.9252C29.4494 16.1571 29.4169 17.4766 28.9831 18.6886C28.5493 19.9007 27.7372 20.9411 26.6667 21.6561" stroke="#020F00" stroke-width="2" stroke-linecap="round" stroke-linejoin="round"/>
</svg>
