<svg width="34" height="33" viewBox="0 0 34 33" fill="none" xmlns="http://www.w3.org/2000/svg">
<path d="M6.41478 7.76947C8.24467 4.70247 11.9238 3.84981 13.5346 3.80685H14.2383M6.41478 7.76947C4.58489 10.8365 4.02003 14.5027 3.96634 15.9524C3.93412 16.6827 4.18543 18.2413 4.77175 19.5607C5.2479 20.6321 6.16779 21.7084 6.41478 22.0735M6.41478 7.76947C5.65233 9.47693 4.5849 13.7359 6.41478 17.1122C6.99501 18.1828 7.57109 19.1664 8.18667 20.0895M6.41478 22.0735L1.58233 27.5825C1.21721 27.9262 0.648058 28.7359 1.29239 29.2256C1.93671 29.7153 4.07372 30.8042 5.06168 31.2874C5.40533 31.5237 6.23436 31.7707 6.80137 30.8686C7.36838 29.9665 9.07799 27.1637 9.86192 25.8751M6.41478 22.0735L8.18667 20.0895M9.86192 25.8751C9.86192 25.8751 10.9573 26.616 11.7949 27.0026C12.6325 27.3892 14.5204 28.0464 15.3709 27.5825C15.4921 27.5164 15.6221 27.4347 15.7575 27.3416M9.86192 25.8751C9.86192 25.8751 10.667 24.5748 11.1828 23.7416M20.2678 3.80685C19.108 5.99757 19.4116 10.8418 19.3335 15.3725C19.3123 16.6053 19.3335 16.6385 19.3335 18.5297M15.7575 27.3416C16.5728 26.7811 17.3441 26.2895 18.0449 25.3274C19.2306 23.6994 19.3335 23.4266 19.3335 20.3338C19.3335 19.6582 19.3335 19.0584 19.3335 18.5297M15.7575 27.3416C13.8965 26.1322 12.7959 25.2661 11.1828 23.7416M8.18667 20.0895C9.06327 21.404 10.065 22.625 11.1828 23.7416M19.3335 18.5297L28.6441 24.4253C29.1488 24.7797 30.4031 25.0181 31.3825 23.1367C32.3618 21.2552 32.949 19.9292 32.9933 17.7243C33.0511 14.8482 31.9062 13.3168 30.577 10.7656C28.6411 7.04979 25.0895 3.89276 23.715 2.5182C23.1565 1.98126 21.6209 0.92671 19.9456 1.00403C17.8516 1.10068 16.0475 1.71279 14.791 3.16252C14.6168 3.36353 14.4304 3.58099 14.2383 3.80685M9.89414 8.12384C9.89414 8.12384 11.3155 7.32446 11.7949 6.73854C12.2743 6.15262 13.3217 4.88417 14.2383 3.80685" stroke="#161D14" stroke-width="2" stroke-linecap="round"/>
<path d="M8.53844 23.6482L5.02686 28.3518" stroke="#161D14" stroke-width="4" stroke-linecap="round"/>
</svg>
