<svg width="32" height="32" viewBox="0 0 32 32" fill="none" xmlns="http://www.w3.org/2000/svg">
<path d="M20.9146 20.0001C20.1732 23.5066 18.4716 26.738 16 29.3334C12.5763 25.7385 10.6666 20.9644 10.6666 16.0001C10.6666 11.0357 12.5763 6.26162 16 2.66675C13.5358 2.66739 11.12 3.3509 9.02075 4.64139C6.92151 5.93188 5.22096 7.77888 4.10788 9.97733C2.9948 12.1758 2.51272 14.6397 2.71518 17.0955C2.91764 19.5514 3.7967 21.9031 5.25479 23.8896C6.71287 25.8761 8.69294 27.4197 10.9752 28.3489C13.2574 29.2782 15.7525 29.5569 18.1835 29.154C20.6145 28.7511 22.8864 27.6823 24.7468 26.0665C26.6072 24.4506 27.9834 22.3508 28.7226 20.0001M2.66663 16.0001H14M26.6666 8.00008V5.33341C26.6666 4.62617 26.3857 3.94789 25.8856 3.4478C25.3855 2.9477 24.7072 2.66675 24 2.66675C23.2927 2.66675 22.6144 2.9477 22.1143 3.4478C21.6142 3.94789 21.3333 4.62617 21.3333 5.33341V8.00008M20 8.00008H28C28.7363 8.00008 29.3333 8.59704 29.3333 9.33341V13.3334C29.3333 14.0698 28.7363 14.6667 28 14.6667H20C19.2636 14.6667 18.6666 14.0698 18.6666 13.3334V9.33341C18.6666 8.59704 19.2636 8.00008 20 8.00008Z" stroke="#020F00" stroke-width="2" stroke-linecap="round" stroke-linejoin="round"/>
</svg>
