<svg width="32" height="32" viewBox="0 0 32 32" fill="none" xmlns="http://www.w3.org/2000/svg">
<path d="M14.6666 22.6666L17.3333 25.3333C17.5959 25.5959 17.9077 25.8043 18.2509 25.9464C18.5941 26.0885 18.9619 26.1617 19.3333 26.1617C19.7047 26.1617 20.0725 26.0885 20.4157 25.9464C20.7588 25.8043 21.0706 25.5959 21.3333 25.3333C21.5959 25.0706 21.8043 24.7588 21.9464 24.4157C22.0886 24.0725 22.1617 23.7047 22.1617 23.3333C22.1617 22.9618 22.0886 22.594 21.9464 22.2509C21.8043 21.9077 21.5959 21.5959 21.3333 21.3333M18.6666 18.6666L22 21.9999C22.5304 22.5304 23.2498 22.8284 24 22.8284C24.7501 22.8284 25.4695 22.5304 26 21.9999C26.5304 21.4695 26.8284 20.7501 26.8284 19.9999C26.8284 19.2498 26.5304 18.5304 26 17.9999L20.8266 12.8266C20.0766 12.0775 19.06 11.6568 18 11.6568C16.94 11.6568 15.9233 12.0775 15.1733 12.8266L14 13.9999C13.4695 14.5304 12.7501 14.8284 12 14.8284C11.2498 14.8284 10.5304 14.5304 9.99996 13.9999C9.46953 13.4695 9.17153 12.7501 9.17153 11.9999C9.17153 11.2498 9.46953 10.5304 9.99996 9.99994L13.7466 6.25327C14.9629 5.04013 16.5492 4.26734 18.2541 4.05724C19.9591 3.84713 21.6855 4.21171 23.16 5.09327L23.7866 5.46661C24.3543 5.80925 25.0294 5.92809 25.68 5.79994L28 5.33327M28 3.99994L29.3333 18.6666H26.6666M3.99996 3.99994L2.66663 18.6666L11.3333 27.3333C11.8637 27.8637 12.5831 28.1617 13.3333 28.1617C14.0834 28.1617 14.8029 27.8637 15.3333 27.3333C15.8637 26.8028 16.1617 26.0834 16.1617 25.3333C16.1617 24.5831 15.8637 23.8637 15.3333 23.3333M3.99996 5.33327H14.6666" stroke="#020F00" stroke-width="2" stroke-linecap="round" stroke-linejoin="round"/>
</svg>
