<svg width="33" height="32" viewBox="0 0 33 32" fill="none" xmlns="http://www.w3.org/2000/svg">
<path d="M23.2332 27.04C21.9266 28.3067 20.4999 28.1067 19.1266 27.5067C17.6732 26.8933 16.3399 26.8667 14.8066 27.5067C12.8866 28.3333 11.8732 28.0933 10.7266 27.04C4.21989 20.3333 5.17989 10.12 12.5666 9.74667C14.3666 9.84 15.6199 10.7333 16.6732 10.8133C18.2466 10.4933 19.7532 9.57333 21.4332 9.69333C23.4466 9.85333 24.9666 10.6533 25.9666 12.0933C21.8066 14.5867 22.7932 20.0667 26.6066 21.6C25.8466 23.6 24.8599 25.5867 23.2199 27.0533L23.2332 27.04ZM16.5399 9.66667C16.3399 6.69333 18.7532 4.24 21.5266 4C21.9132 7.44 18.4066 10 16.5399 9.66667Z" fill="black"/>
</svg>
