<svg width="32" height="32" viewBox="0 0 32 32" fill="none" xmlns="http://www.w3.org/2000/svg">
<path d="M18.6666 23.9999C18.6666 23.2927 18.3857 22.6144 17.8856 22.1143C17.3855 21.6142 16.7072 21.3332 16 21.3332C15.2927 21.3332 14.6144 21.6142 14.1143 22.1143C13.6142 22.6144 13.3333 23.2927 13.3333 23.9999M18.6666 23.9999C18.6666 26.209 20.4575 27.9999 22.6666 27.9999C24.8758 27.9999 26.6666 26.209 26.6666 23.9999C26.6666 21.7908 24.8758 19.9999 22.6666 19.9999C20.4575 19.9999 18.6666 21.7908 18.6666 23.9999ZM13.3333 23.9999C13.3333 26.209 11.5424 27.9999 9.33329 27.9999C7.12415 27.9999 5.33329 26.209 5.33329 23.9999C5.33329 21.7908 7.12415 19.9999 9.33329 19.9999C11.5424 19.9999 13.3333 21.7908 13.3333 23.9999ZM25.3333 14.6666L22.52 5.79057C22.3968 5.43609 22.2002 5.11159 21.9431 4.83829C21.6859 4.565 21.374 4.34905 21.0276 4.20458C20.6813 4.0601 20.3084 3.99035 19.9332 3.99988C19.5581 4.00942 19.1892 4.09802 18.8506 4.2599L17.1493 5.07324C16.7904 5.24453 16.3977 5.33336 16 5.33324H11.3333C10.7524 5.33312 10.1874 5.52267 9.7241 5.87308C9.26082 6.22349 8.92462 6.71559 8.76663 7.27457L6.66663 14.6666M2.66663 14.6666H29.3333" stroke="#001F12" stroke-width="2" stroke-linecap="round" stroke-linejoin="round"/>
</svg>
