<svg width="32" height="32" viewBox="0 0 32 32" fill="none" xmlns="http://www.w3.org/2000/svg">
<path d="M16 19.6667V8M16 19.6667L10.8571 14.6667M16 19.6667L21.1429 14.6667M22 23H10" stroke="#001F12" stroke-width="1.5" stroke-linecap="round" stroke-linejoin="round"/>
<path d="M3.98925 21.7893C4.1853 22.2838 4.22895 22.8257 4.11458 23.3453L2.69458 27.7319C2.64883 27.9544 2.66066 28.1848 2.72895 28.4014C2.79724 28.6181 2.91973 28.8136 3.0848 28.9696C3.24988 29.1256 3.45206 29.2368 3.67218 29.2928C3.8923 29.3487 4.12306 29.3475 4.34258 29.2893L8.89325 27.9586C9.38353 27.8613 9.89129 27.9038 10.3586 28.0813C13.2058 29.4109 16.4311 29.6922 19.4654 28.8755C22.4998 28.0589 25.1483 26.1968 26.9435 23.6177C28.7388 21.0387 29.5654 17.9085 29.2776 14.7793C28.9899 11.6502 27.6062 8.72321 25.3707 6.51485C23.1352 4.30648 20.1915 2.95864 17.0591 2.70911C13.9267 2.45959 10.8068 3.32443 8.24984 5.15104C5.69291 6.97764 3.86329 9.64864 3.08377 12.6928C2.30425 15.7369 2.62494 18.9585 3.98925 21.7893Z" stroke="#001F12" stroke-width="2" stroke-linecap="round" stroke-linejoin="round"/>
</svg>
