<svg width="32" height="32" viewBox="0 0 32 32" fill="none" xmlns="http://www.w3.org/2000/svg">
<path d="M3.98937 21.7893C4.18542 22.2838 4.22907 22.8257 4.1147 23.3453L2.6947 27.7319C2.64895 27.9544 2.66078 28.1848 2.72907 28.4014C2.79736 28.6181 2.91985 28.8136 3.08492 28.9696C3.25 29.1256 3.45218 29.2368 3.6723 29.2928C3.89242 29.3487 4.12318 29.3475 4.3427 29.2893L8.89337 27.9586C9.38366 27.8613 9.89141 27.9038 10.3587 28.0813C13.2059 29.4109 16.4312 29.6922 19.4656 28.8755C22.4999 28.0589 25.1484 26.1968 26.9436 23.6177C28.7389 21.0387 29.5655 17.9085 29.2778 14.7793C28.99 11.6502 27.6063 8.72321 25.3708 6.51485C23.1353 4.30648 20.1916 2.95864 17.0592 2.70911C13.9268 2.45959 10.8069 3.32443 8.24996 5.15104C5.69304 6.97764 3.86341 9.64864 3.08389 12.6928C2.30438 15.7369 2.62506 18.9585 3.98937 21.7893Z" stroke="#020F00" stroke-width="2" stroke-linecap="round" stroke-linejoin="round"/>
<path d="M19.808 20.744C18.528 20.744 17.92 20.152 17.728 19.208C17.008 20.296 15.808 20.76 14.688 20.76C13.104 20.76 11.888 19.864 11.888 18.328C11.888 17.144 12.528 16.296 13.824 15.88C14.96 15.496 16.112 15.4 17.648 15.384V15.144C17.648 13.88 17.088 13.192 15.888 13.192C14.688 13.192 14.096 13.832 13.952 14.808H12.24C12.496 12.936 13.824 11.768 15.952 11.768C18.224 11.768 19.344 13.128 19.344 15.128V18.344C19.344 19.16 19.648 19.704 20.384 19.704C21.472 19.704 22.16 18.472 22.16 16.232C22.16 12.68 19.536 10.008 15.904 10.008C12.24 10.008 9.568 12.808 9.568 16.488C9.568 20.232 12.192 22.888 15.904 22.888C17.104 22.888 18.176 22.744 19.184 22.328L19.44 23.032C18.368 23.48 17.2 23.64 15.904 23.64C11.68 23.64 8.704 20.632 8.704 16.488C8.704 12.312 11.728 9.272 15.904 9.272C20.048 9.272 23.024 12.2 23.024 16.2C23.024 19.096 21.792 20.744 19.808 20.744ZM13.6 18.152C13.6 18.92 14.144 19.432 15.12 19.432C16.48 19.432 17.648 18.36 17.648 17.064V16.488C14.368 16.52 13.6 17.192 13.6 18.152Z" fill="#020F00"/>
</svg>
