<svg width="32" height="32" viewBox="0 0 32 32" fill="none" xmlns="http://www.w3.org/2000/svg">
<path d="M16.9333 4H5.33329C4.62605 4 3.94777 4.28095 3.44767 4.78105C2.94758 5.28115 2.66663 5.95942 2.66663 6.66667V28.3813C2.66665 28.5685 2.72218 28.7516 2.82621 28.9072C2.93023 29.0629 3.07807 29.1842 3.25104 29.2558C3.424 29.3275 3.61433 29.3462 3.79794 29.3097C3.98156 29.2732 4.15023 29.183 4.28263 29.0507L7.21863 26.1147C7.71861 25.6145 8.39677 25.3335 9.10396 25.3333H26.6666C27.3739 25.3333 28.0521 25.0524 28.5522 24.5523C29.0523 24.0522 29.3333 23.3739 29.3333 22.6667V16.4M29.3333 8C29.3333 10.2091 27.5424 12 25.3333 12C23.1242 12 21.3333 10.2091 21.3333 8C21.3333 5.79086 23.1242 4 25.3333 4C27.5424 4 29.3333 5.79086 29.3333 8Z" stroke="#001F12" stroke-width="2" stroke-linecap="round" stroke-linejoin="round"/>
</svg>
