<svg width="32" height="32" viewBox="0 0 32 32" fill="none" xmlns="http://www.w3.org/2000/svg">
<path d="M17.8667 2.6667H8.00008C7.29284 2.6667 6.61456 2.94765 6.11446 3.44775C5.61437 3.94785 5.33341 4.62612 5.33341 5.33337V26.6667C5.33341 27.3739 5.61437 28.0522 6.11446 28.5523C6.61456 29.0524 7.29284 29.3334 8.00008 29.3334H24.0001C24.7073 29.3334 25.3856 29.0524 25.8857 28.5523C26.3858 28.0522 26.6667 27.3739 26.6667 26.6667V16.8M2.66675 8.00004H8.00008M2.66675 13.3334H8.00008M2.66675 18.6667H8.00008M2.66675 24H8.00008M28.5041 7.50137C29.0352 6.97023 29.3336 6.24985 29.3336 5.4987C29.3336 4.74756 29.0352 4.02718 28.5041 3.49604C27.9729 2.9649 27.2526 2.6665 26.5014 2.6665C25.7503 2.6665 25.0299 2.9649 24.4987 3.49604L17.8187 10.1787C17.5017 10.4955 17.2697 10.8871 17.1441 11.3174L16.0281 15.144C15.9946 15.2588 15.9926 15.3804 16.0223 15.4962C16.0519 15.6119 16.1122 15.7176 16.1967 15.8021C16.2812 15.8866 16.3869 15.9469 16.5026 15.9765C16.6184 16.0062 16.74 16.0042 16.8547 15.9707L20.6814 14.8547C21.1116 14.7291 21.5033 14.497 21.8201 14.18L28.5041 7.50137Z" stroke="#8D844D" stroke-width="2" stroke-linecap="round" stroke-linejoin="round"/>
</svg>
