<svg width="32" height="32" viewBox="0 0 32 32" fill="none" xmlns="http://www.w3.org/2000/svg">
<path d="M15.9999 19.9999L11.9999 15.9999M15.9999 19.9999C17.8624 19.2916 19.6491 18.3982 21.3333 17.3333M15.9999 19.9999V26.6666C15.9999 26.6666 20.0399 25.9333 21.3333 23.9999C22.7733 21.8399 21.3333 17.3333 21.3333 17.3333M11.9999 15.9999C12.7094 14.1592 13.6029 12.3947 14.6666 10.7333C16.2202 8.24924 18.3834 6.20399 20.9506 4.79205C23.5178 3.3801 26.4035 2.64842 29.3333 2.66659C29.3333 6.29326 28.2933 12.6666 21.3333 17.3333M11.9999 15.9999H5.33325C5.33325 15.9999 6.06659 11.9599 7.99992 10.6666C10.1599 9.22659 14.6666 10.6666 14.6666 10.6666M5.99992 21.9999C3.99992 23.6799 3.33325 28.6666 3.33325 28.6666C3.33325 28.6666 8.31992 27.9999 9.99992 25.9999C10.9466 24.8799 10.9333 23.1599 9.87992 22.1199C9.36166 21.6253 8.67898 21.3394 7.96289 21.3173C7.2468 21.2951 6.54775 21.5382 5.99992 21.9999Z" stroke="#8D844D" stroke-width="2" stroke-linecap="round" stroke-linejoin="round"/>
</svg>
