<svg width="32" height="32" viewBox="0 0 32 32" fill="none" xmlns="http://www.w3.org/2000/svg">
<path d="M22.6667 28V18.6667C22.6667 18.313 22.5262 17.9739 22.2761 17.7239C22.0261 17.4738 21.687 17.3333 21.3333 17.3333H10.6667C10.313 17.3333 9.97391 17.4738 9.72386 17.7239C9.47381 17.9739 9.33333 18.313 9.33333 18.6667V28M9.33333 4V9.33333C9.33333 9.68696 9.47381 10.0261 9.72386 10.2761C9.97391 10.5262 10.313 10.6667 10.6667 10.6667H20M20.2667 4C20.9701 4.01002 21.641 4.29756 22.1333 4.8L27.2 9.86667C27.7024 10.359 27.99 11.0299 28 11.7333V25.3333C28 26.0406 27.719 26.7189 27.219 27.219C26.7189 27.719 26.0406 28 25.3333 28H6.66667C5.95942 28 5.28115 27.719 4.78105 27.219C4.28095 26.7189 4 26.0406 4 25.3333V6.66667C4 5.95942 4.28095 5.28115 4.78105 4.78105C5.28115 4.28095 5.95942 4 6.66667 4H20.2667Z" stroke="#020F00" stroke-width="2" stroke-linecap="round" stroke-linejoin="round"/>
</svg>
