<svg width="32" height="32" viewBox="0 0 32 32" fill="none" xmlns="http://www.w3.org/2000/svg">
<path d="M28 22.6666L25.1253 20.1759C25.0303 20.0859 24.9109 20.0257 24.7819 20.0031C24.653 19.9804 24.5202 19.9963 24.4002 20.0486C24.2802 20.1009 24.1782 20.1875 24.107 20.2974C24.0359 20.4073 23.9986 20.5357 24 20.6666V21.3333C24 21.6869 23.8595 22.026 23.6095 22.2761C23.3594 22.5261 23.0203 22.6666 22.6667 22.6666H20C19.6464 22.6666 19.3072 22.5261 19.0572 22.2761C18.8071 22.026 18.6667 21.6869 18.6667 21.3333C18.6667 17.9399 13.3453 16.0399 7.33333 15.9999C6.44928 15.9999 5.60143 16.3511 4.97631 16.9763C4.35119 17.6014 4 18.4492 4 19.3333C4 20.2173 4.35119 21.0652 4.97631 21.6903C5.60143 22.3154 6.44928 22.6666 7.33333 22.6666C12.8707 22.6666 13.66 7.60661 14.944 4.66661C15.1609 4.17033 15.4955 3.73438 15.9187 3.39649C16.342 3.05859 16.8412 2.82892 17.3732 2.72735C17.9052 2.62578 18.454 2.65538 18.972 2.81357C19.4899 2.97176 19.9616 3.25379 20.3461 3.63525C20.7305 4.01671 21.0163 4.48611 21.1785 5.00283C21.3408 5.51955 21.3747 6.06803 21.2774 6.60081C21.18 7.13359 20.9543 7.63462 20.6197 8.06055C20.2852 8.48647 19.8519 8.82446 19.3573 9.04527M4 27.9999H28" stroke="#8D844D" stroke-width="2" stroke-linecap="round" stroke-linejoin="round"/>
</svg>
