<svg width="18" height="18" viewBox="0 0 18 18" fill="none" xmlns="http://www.w3.org/2000/svg">
<path d="M18 13.5C18 14.0304 17.7893 14.5391 17.4142 14.9142C17.0391 15.2893 16.5304 15.5 16 15.5H2C1.46957 15.5 0.960859 15.2893 0.585786 14.9142C0.210714 14.5391 0 14.0304 0 13.5V4.5C0 3.96957 0.210714 3.46086 0.585786 3.08579C0.960859 2.71071 1.46957 2.5 2 2.5H16C16.5304 2.5 17.0391 2.71071 17.4142 3.08579C17.7893 3.46086 18 3.96957 18 4.5V13.5Z" fill="#C60A1D"/>
<path d="M0 6H18V12H0V6Z" fill="#FFC400"/>
<path d="M4.5 8.5V10C4.5 10.3978 4.65804 10.7794 4.93934 11.0607C5.22064 11.342 5.60218 11.5 6 11.5C6.39782 11.5 6.77936 11.342 7.06066 11.0607C7.34196 10.7794 7.5 10.3978 7.5 10V8.5H4.5Z" fill="#EA596E"/>
<path d="M6 8H7.5V9.5H6V8Z" fill="#F4A2B2"/>
<path d="M4.5 8H6V9.5H4.5V8Z" fill="#DD2E44"/>
<path d="M6 8C6.82843 8 7.5 7.66421 7.5 7.25C7.5 6.83579 6.82843 6.5 6 6.5C5.17157 6.5 4.5 6.83579 4.5 7.25C4.5 7.66421 5.17157 8 6 8Z" fill="#EA596E"/>
<path d="M6 7.25C6.82843 7.25 7.5 7.08211 7.5 6.875C7.5 6.66789 6.82843 6.5 6 6.5C5.17157 6.5 4.5 6.66789 4.5 6.875C4.5 7.08211 5.17157 7.25 6 7.25Z" fill="#FFAC33"/>
<path d="M3.5 8H4V11.5H3.5V8ZM8 8H8.5V11.5H8V8Z" fill="#99AAB5"/>
<path d="M3 11H4.5V11.5H3V11ZM7.5 11H9V11.5H7.5V11ZM3.5 7.5H4V8H3.5V7.5ZM8 7.5H8.5V8H8V7.5Z" fill="#66757F"/>
</svg>
