<svg width="18" height="19" viewBox="0 0 18 19" fill="none" xmlns="http://www.w3.org/2000/svg">
<path d="M17.7225 4C17.376 3.4045 16.7385 3 16 3H9V4H17.7225ZM0 13H18V14H0V13ZM9 9H18V10H9V9ZM9 7H18V8H9V7ZM0 11H18V12H0V11ZM2 16H16C16.7385 16 17.376 15.5955 17.7225 15H0.2775C0.624 15.5955 1.2615 16 2 16ZM9 5H18V6H9V5Z" fill="#B22334"/>
<path d="M0.034 14.3395C0.0423333 14.3862 0.0521667 14.4323 0.0635 14.478C0.0768333 14.528 0.0921667 14.5773 0.1095 14.626C0.154 14.7555 0.208 14.8805 0.276 14.9975L0.2775 15H17.7225L17.7235 14.998C17.7913 14.8805 17.8469 14.7563 17.8895 14.6275C17.922 14.5335 17.9474 14.4373 17.9655 14.3395C17.986 14.2295 18 14.1165 18 14H0C0 14.1165 0.014 14.229 0.034 14.3395ZM0 12H18V13H0V12ZM0 10V11H18V10H9H0ZM9 8H18V9H9V8ZM9 6H18V7H9V6ZM0.064 4.522C0.0765 4.471 0.094 4.4225 0.11 4.3735C0.0927479 4.42239 0.077403 4.47192 0.064 4.522ZM9 5H18C18 4.8835 17.986 4.7705 17.9655 4.66C17.948 4.56205 17.9224 4.46572 17.889 4.372C17.8463 4.24265 17.7905 4.11801 17.7225 4H9V5Z" fill="#EEEEEE"/>
<path d="M9 3H2C1.46957 3 0.960859 3.21071 0.585786 3.58579C0.210714 3.96086 0 4.46957 0 5L0 10H9V3Z" fill="#3C3B6E"/>
<path d="M1.00049 4.363L1.30949 4.5875L1.19149 4.95L1.49999 4.726L1.80899 4.95L1.69099 4.5875L1.99999 4.363H1.61799L1.49999 4L1.38249 4.363H1.00049ZM2.00049 5.363L2.30949 5.5875L2.19149 5.95L2.49999 5.726L2.80899 5.95L2.69099 5.5875L2.99999 5.363H2.61799L2.49999 5L2.38249 5.363H2.00049ZM4.00049 5.363L4.30949 5.5875L4.19149 5.95L4.49999 5.726L4.80899 5.95L4.69099 5.5875L4.99999 5.363H4.61799L4.49999 5L4.38249 5.363H4.00049ZM6.00049 5.363L6.30949 5.5875L6.19149 5.95L6.49999 5.726L6.80899 5.95L6.69099 5.5875L6.99999 5.363H6.61799L6.49999 5L6.38249 5.363H6.00049ZM2.00049 7.363L2.30949 7.5875L2.19149 7.95L2.49999 7.726L2.80899 7.95L2.69099 7.5875L2.99999 7.363H2.61799L2.49999 7L2.38249 7.363H2.00049ZM4.00049 7.363L4.30949 7.5875L4.19149 7.95L4.49999 7.726L4.80899 7.95L4.69099 7.5875L4.99999 7.363H4.61799L4.49999 7L4.38249 7.363H4.00049ZM6.00049 7.363L6.30949 7.5875L6.19149 7.95L6.49999 7.726L6.80899 7.95L6.69099 7.5875L6.99999 7.363H6.61799L6.49999 7L6.38249 7.363H6.00049ZM3.00049 4.363L3.30949 4.5875L3.19149 4.95L3.49999 4.726L3.80899 4.95L3.69099 4.5875L3.99999 4.363H3.61799L3.49999 4L3.38249 4.363H3.00049ZM5.00049 4.363L5.30949 4.5875L5.19149 4.95L5.49999 4.726L5.80899 4.95L5.69099 4.5875L5.99999 4.363H5.61799L5.49999 4L5.38249 4.363H5.00049ZM7.00049 4.363L7.30949 4.5875L7.19149 4.95L7.49999 4.726L7.80899 4.95L7.69099 4.5875L7.99999 4.363H7.61799L7.49999 4L7.38249 4.363H7.00049ZM1.00049 6.363L1.30949 6.5875L1.19149 6.95L1.49999 6.726L1.80899 6.95L1.69099 6.5875L1.99999 6.363H1.61799L1.49999 6L1.38249 6.363H1.00049ZM3.19149 6.95L3.49999 6.726L3.80899 6.95L3.69099 6.5875L3.99999 6.363H3.61799L3.49999 6L3.38249 6.363H3.00049L3.30949 6.5875L3.19149 6.95ZM5.00049 6.363L5.30949 6.5875L5.19149 6.95L5.49999 6.726L5.80899 6.95L5.69099 6.5875L5.99999 6.363H5.61799L5.49999 6L5.38249 6.363H5.00049ZM7.00049 6.363L7.30949 6.5875L7.19149 6.95L7.49999 6.726L7.80899 6.95L7.69099 6.5875L7.99999 6.363H7.61799L7.49999 6L7.38249 6.363H7.00049ZM1.00049 8.363L1.30949 8.5875L1.19149 8.95L1.49999 8.726L1.80899 8.95L1.69099 8.5875L1.99999 8.363H1.61799L1.49999 8L1.38249 8.363H1.00049ZM3.19149 8.95L3.49999 8.726L3.80899 8.95L3.69099 8.5875L3.99999 8.363H3.61799L3.49999 8L3.38249 8.363H3.00049L3.30949 8.5875L3.19149 8.95ZM5.00049 8.363L5.30949 8.5875L5.19149 8.95L5.49999 8.726L5.80899 8.95L5.69099 8.5875L5.99999 8.363H5.61799L5.49999 8L5.38249 8.363H5.00049ZM7.00049 8.363L7.30949 8.5875L7.19149 8.95L7.49999 8.726L7.80899 8.95L7.69099 8.5875L7.99999 8.363H7.61799L7.49999 8L7.38249 8.363H7.00049Z" fill="white"/>
</svg>
